Coordinates
version=1
nRows=29
nColumns=22
inDegrees=yes

Units are S.I. units (second, meters, Newtons, ...)
If the header above contains a line with 'inDegrees', this indicates whether rotational values are in degrees (yes) or radians (no).

endheader
time	pelvis_tilt	pelvis_list	pelvis_rotation	pelvis_tx	pelvis_ty	pelvis_tz	hip_flexion_r	hip_adduction_r	hip_rotation_r	knee_angle_r	ankle_angle_r	subtalar_angle_r	hip_flexion_l	hip_adduction_l	hip_rotation_l	knee_angle_l	ankle_angle_l	subtalar_angle_l	lumbar_extension	lumbar_bending	lumbar_rotation
      3.08000000	     -7.71213298	      3.29065643	    -46.70883804	      0.05410608	      0.86445680	      0.21072185	      3.51413582	     -3.04574048	     12.79742121	    -47.73636820	     -7.52031187	     12.67162731	     27.96071936	     -7.10330930	     -4.42486108	    -25.04313061	      9.44680263	      2.43937461	      1.63898566	     -2.19093802	     19.64954321
      3.09000000	     -7.66500425	      3.34555906	    -46.72013419	      0.06091677	      0.86566890	      0.21318204	      5.29920473	     -3.25357334	     12.17055958	    -50.08868411	     -7.35583013	     12.08773603	     27.28747266	     -6.78702330	     -4.52589177	    -24.73137247	      9.87649603	      2.19233864	      1.62452419	     -2.32155034	     19.54142486
      3.10000000	     -7.56206319	      3.37229080	    -46.67762237	      0.06771312	      0.86689362	      0.21560744	      6.96605509	     -3.47418909	     11.59254538	    -52.22768074	     -6.94638491	     11.60544861	     26.55753534	     -6.43498306	     -4.62440528	    -24.39977938	     10.25984134	      2.08271475	      1.54592673	     -2.47345886	     19.35727967
      3.11000000	     -7.46632754	      3.37255767	    -46.57558060	      0.07447429	      0.86809084	      0.21802018	      8.54845553	     -3.63423173	     11.08683753	    -54.13197304	     -6.35245332	     11.15017500	     25.81223421	     -6.08892465	     -4.65856947	    -24.03140726	     10.62443967	      2.02611266	      1.45836758	     -2.59864815	     19.09672916
      3.12000000	     -7.36421672	      3.31770795	    -46.38691883	      0.08124196	      0.86929606	      0.22039489	      9.99617165	     -3.73397898	     10.59925473	    -55.78324010	     -5.57128826	     10.88066771	     25.04697817	     -5.75668147	     -4.63934391	    -23.67146248	     10.94641558	      2.03980417	      1.32428735	     -2.68654559	     18.73917047
      3.13000000	     -7.30926854	      3.24363772	    -46.14890229	      0.08797880	      0.87046012	      0.22280297	     11.39090399	     -3.74429468	     10.14483095	    -57.18445191	     -4.78368640	     10.42976752	     24.28572242	     -5.46488897	     -4.55477891	    -23.25459303	     11.27104341	      2.05558088	      1.22915278	     -2.72110252	     18.35830673
      3.14000000	     -7.25619802	      3.09820802	    -45.83023146	      0.09470601	      0.87165654	      0.22521657	     12.62933188	     -3.65832220	      9.71493605	    -58.31679949	     -3.90197628	     10.16645228	     23.50223118	     -5.21647520	     -4.41707863	    -22.86371576	     11.58966053	      2.12491110	      1.08341545	     -2.70023202	     17.86503404
      3.15000000	     -7.21846595	      2.90830947	    -45.45045065	      0.10141174	      0.87285927	      0.22764492	     13.75529944	     -3.48997840	      9.30775366	    -59.19277137	     -2.99100111	     10.08690584	     22.70861280	     -5.00949286	     -4.23786368	    -22.46898292	     11.89303864	      2.21664537	      0.92486663	     -2.62995484	     17.31155863
      3.16000000	     -7.19785546	      2.70193677	    -45.01969166	      0.10809731	      0.87403471	      0.23009618	     14.80529886	     -3.26857705	      8.90753327	    -59.83444824	     -2.10224910	     10.13121545	     21.90990719	     -4.82304804	     -3.98417135	    -22.04353661	     12.17895106	      2.35748307	      0.78388645	     -2.53529839	     16.73209403
      3.17000000	     -7.18230058	      2.46695672	    -44.53748646	      0.11475933	      0.87519214	      0.23255631	     15.75605368	     -2.99780659	      8.51415198	    -60.24300648	     -1.19119306	     10.32681402	     21.11207422	     -4.66545928	     -3.70657615	    -21.63153434	     12.45006447	      2.49711079	      0.63501820	     -2.41000529	     16.09060428
      3.18000000	     -7.17262864	      2.20859480	    -44.02484377	      0.12138144	      0.87633928	      0.23505768	     16.62423074	     -2.67641354	      8.15152635	    -60.43604471	     -0.33007579	     10.87858551	     20.28373045	     -4.53220524	     -3.33620002	    -21.17523211	     12.72079703	      2.71960081	      0.48851008	     -2.26200334	     15.44956802
      3.19000000	     -7.16333792	      1.94707714	    -43.50686763	      0.12793699	      0.87742576	      0.23760101	     17.43181158	     -2.33345645	      7.81973213	    -60.43723942	      0.59250882	     11.56335611	     19.47131626	     -4.42686547	     -3.02012003	    -20.74692362	     12.98507548	      2.89310233	      0.35276100	     -2.10732921	     14.81678949
      3.20000000	     -7.15094740	      1.68841966	    -42.96116585	      0.13446565	      0.87845649	      0.24013709	     18.19222886	     -1.99726581	      7.47387883	    -60.26696484	      1.46053017	     12.19632061	     18.65060513	     -4.31817802	     -2.63377489	    -20.29083587	     13.24161205	      3.01655062	      0.22723538	     -1.95262731	     14.17597313
      3.21000000	     -7.12996158	      1.44123694	    -42.41312451	      0.14092641	      0.87941857	      0.24269264	     18.91578874	     -1.66951840	      7.15094860	    -59.94435528	      2.30130926	     12.82730807	     17.83070934	     -4.20926796	     -2.23022678	    -19.82927525	     13.49505718	      3.10957388	      0.11251772	     -1.80956270	     13.54333398
      3.22000000	     -7.10319853	      1.20989854	    -41.87552658	      0.14731653	      0.88029696	      0.24528325	     19.61587307	     -1.36335411	      6.83628799	    -59.48734065	      3.12023126	     13.40136420	     17.01578386	     -4.10371747	     -1.83517223	    -19.36630071	     13.73970929	      3.16221201	      0.01342510	     -1.68220449	     12.95046824
      3.23000000	     -7.06993299	      0.99556000	    -41.35263091	      0.15366175	      0.88109576	      0.24788691	     20.29588917	     -1.08994521	      6.52617621	    -58.90502556	      3.88209663	     13.90508008	     16.19982534	     -3.99657539	     -1.45331841	    -18.89106265	     13.97377048	      3.16841131	     -0.07189051	     -1.56382998	     12.40653963
      3.24000000	     -7.04562495	      0.81395106	    -40.83952013	      0.15993430	      0.88175812	      0.25049515	     20.99142880	     -0.86054230	      6.19099799	    -58.22649707	      4.62023571	     14.14229135	     15.42926975	     -3.88640759	     -1.08984234	    -18.44339540	     14.18948713	      3.14701121	     -0.12155296	     -1.46134921	     11.90317997
      3.25000000	     -6.98513813	      0.62303140	    -40.36372738	      0.16617487	      0.88244321	      0.25317354	     21.61369508	     -0.64763604	      5.90680384	    -57.41382909	      5.18410257	     14.47074955	     14.57563563	     -3.77319004	     -0.69948745	    -17.92497673	     14.41293390	      3.01472576	     -0.20267431	     -1.37098286	     11.46422017
      3.26000000	     -6.95439291	      0.47911384	    -39.88859607	      0.17234869	      0.88293771	      0.25583204	     22.28447488	     -0.48509242	      5.58220703	    -56.53243822	      5.73128047	     14.51628480	     13.81303108	     -3.65514587	     -0.32754664	    -17.46543292	     14.60934144	      2.91003759	     -0.22547463	     -1.29115407	     11.03870000
      3.27000000	     -6.90741074	      0.33521278	    -39.44007496	      0.17848370	      0.88339635	      0.25853324	     22.91007935	     -0.34484873	      5.27143638	    -55.54147137	      6.17119112	     14.46106983	     13.02473703	     -3.53669752	      0.07059169	    -16.99525565	     14.80416669	      2.72339451	     -0.26047832	     -1.21658364	     10.68049295
      3.28000000	     -6.84535831	      0.19507491	    -39.01171561	      0.18460499	      0.88379214	      0.26126077	     23.50453762	     -0.23856089	      4.95170485	    -54.47010979	      6.50867119	     14.25397970	     12.22099506	     -3.41815856	      0.43493364	    -16.52064358	     14.99782126	      2.41667387	     -0.30715827	     -1.14218145	     10.33853142
      3.29000000	     -6.79124341	      0.07698834	    -38.61071981	      0.19067418	      0.88407618	      0.26403334	     24.09613821	     -0.15070838	      4.64500347	    -53.31364773	      6.79446743	     13.92636531	     11.45097212	     -3.29740035	      0.80726027	    -16.08202749	     15.19077342	      2.06167651	     -0.33021929	     -1.07494666	     10.04891816
      3.30000000	     -6.72331206	     -0.02056046	    -38.26864800	      0.19667975	      0.88427209	      0.26691615	     24.67022556	     -0.07382315	      4.38833406	    -52.08369423	      7.00888099	     13.33660325	     10.67949074	     -3.16960546	      1.13725097	    -15.66189493	     15.42752391	      1.50346345	     -0.35050661	     -1.03177132	      9.84753660
      3.31000000	     -6.67209480	     -0.10142190	    -37.91448245	      0.20268878	      0.88434044	      0.26978314	     25.23484684	     -0.02154818	      4.11046296	    -50.76743305	      7.18930752	     12.82561480	      9.96244965	     -3.04172624	      1.48277377	    -15.29210432	     15.64530712	      1.04870927	     -0.34795101	     -0.97859074	      9.62247171
      3.32000000	     -6.61480337	     -0.16721676	    -37.58225375	      0.20868243	      0.88430746	      0.27269387	     25.77493965	      0.01677631	      3.85581384	    -49.37391522	      7.32554082	     12.29208168	      9.26461419	     -2.90588228	      1.81657479	    -14.96089350	     15.87624813	      0.56682536	     -0.34373829	     -0.93213803	      9.41601921
      3.33000000	     -6.54846674	     -0.21914350	    -37.26779002	      0.21467295	      0.88416709	      0.27565529	     26.28931744	      0.03619408	      3.60805694	    -47.91064780	      7.41283691	     11.76700910	      8.58113367	     -2.76220114	      2.13274065	    -14.66643829	     16.14969404	      0.08104064	     -0.34115762	     -0.89566263	      9.22935283
      3.34000000	     -6.47848994	     -0.25080090	    -36.97601102	      0.22064777	      0.88391696	      0.27868349	     26.78038007	      0.04884507	      3.39370329	    -46.37103368	      7.46881757	     11.25622443	      7.92132067	     -2.60972164	      2.43260189	    -14.41039917	     16.42546590	     -0.40153043	     -0.33155309	     -0.87229793	      9.05067287
      3.35000000	     -6.39521657	     -0.26955937	    -36.70146276	      0.22662591	      0.88356615	      0.28176117	     27.23511205	      0.05085465	      3.20927759	    -44.75861419	      7.48421734	     10.79302285	      7.27078048	     -2.44767554	      2.71464140	    -14.19058445	     16.73822812	     -0.85749474	     -0.33127368	     -0.85945175	      8.88300927
      3.36000000	     -6.30064136	     -0.27646242	    -36.43961087	      0.23260458	      0.88312091	      0.28489127	     27.64898602	      0.04653046	      3.05736426	    -43.06862060	      7.45661539	     10.39560354	      6.63594182	     -2.27810538	      2.99006488	    -14.01681193	     17.06979719	     -1.27011974	     -0.34015378	     -0.85632348	      8.71621716
